<svg width="34" height="34" viewBox="0 0 34 34" fill="none" xmlns="http://www.w3.org/2000/svg">
<g id="Logomark">
<path id="Shape" fill-rule="evenodd" clip-rule="evenodd" d="M16.625 33.5C25.7377 33.5 33.125 26.1127 33.125 17C33.125 7.88731 25.7377 0.5 16.625 0.5C7.51228 0.5 0.125 7.88731 0.125 17C0.125 26.1127 7.51228 33.5 16.625 33.5ZM21.7724 8.1864C22.023 7.2964 21.1593 6.77011 20.3705 7.33208L9.35932 15.1764C8.50388 15.7858 8.63843 17 9.56144 17H12.461V16.9775H18.1121L13.5075 18.6022L11.4776 25.8136C11.227 26.7036 12.0906 27.2299 12.8795 26.6679L23.8907 18.8237C24.7461 18.2142 24.6115 17 23.6886 17H19.2915L21.7724 8.1864Z" fill="#155EEF"/>
</g>
</svg>
