<svg width="33" height="34" viewBox="0 0 33 34" fill="none" xmlns="http://www.w3.org/2000/svg">
<g id="Logomark">
<path id="Shape" d="M27.2301 7.37237C26.9059 7.0482 26.5817 6.72404 26.2576 6.39987C25.2851 5.36255 24.2478 4.32522 22.9511 3.67689C21.4599 2.89889 19.8391 3.09339 18.2183 3.09339C15.7546 3.09339 9.59549 3.09339 5.96484 3.09339L8.4285 6.39987C12.902 6.39987 19.9039 6.39987 23.1456 6.39987C24.5071 6.39987 25.6741 6.65921 26.7762 7.37237C26.9707 7.4372 27.1652 7.4372 27.2301 7.37237Z" fill="#66C61C"/>
<path id="Shape_2" d="M29.953 12.6887C29.6289 12.3645 29.3047 12.0404 28.9806 11.7162C28.0081 10.6789 26.9707 9.64156 25.6741 8.99323C24.1829 8.21523 22.5621 8.40973 20.9413 8.40973C18.8018 8.40973 13.68 8.40973 10.0493 8.40973L12.513 11.7162C16.9216 11.7162 22.9511 11.7162 25.9334 11.7162C27.2949 11.7162 28.4619 11.9755 29.5641 12.6887C29.6937 12.7535 29.8234 12.7535 29.953 12.6887Z" fill="#4CA30D"/>
<path id="Shape_3" d="M33 17.8752C32.6758 17.551 32.3516 17.2268 32.0275 16.9027C31.055 15.8654 30.0177 14.828 28.721 14.1797C27.2298 13.4017 25.609 13.5962 23.9882 13.5962C21.9784 13.5962 17.5697 13.5962 14.0039 13.5962L16.4676 16.9027C20.7465 16.9027 26.1925 16.9027 28.9155 16.9027C30.277 16.9027 31.444 17.162 32.5461 17.8752C32.7406 17.94 32.8703 18.0048 33 17.8752Z" fill="#3B7C0F"/>
<path id="Shape_4" d="M5.70557 26.6277C6.02973 26.9518 6.3539 27.276 6.67806 27.6002C7.65056 28.6375 8.68788 29.6748 9.98454 30.3231C11.4757 31.1011 13.0965 30.9066 14.7174 30.9066H26.9708L24.5071 27.6002C20.0337 27.6002 13.0317 27.6002 9.79005 27.6002C8.42856 27.6002 7.26156 27.3408 6.1594 26.6277C5.9649 26.5628 5.83523 26.5628 5.70557 26.6277Z" fill="#66C61C"/>
<path id="Shape_5" d="M2.98242 21.3115C3.30659 21.6357 3.63075 21.9598 3.95492 22.284C4.92741 23.3213 5.96473 24.3587 7.26139 25.007C8.75255 25.785 10.3734 25.5905 11.9942 25.5905H22.8862L20.4225 22.284C16.0139 22.284 9.98438 22.284 7.00207 22.284C5.64057 22.284 4.47358 22.0247 3.37141 21.3115C3.24175 21.2467 3.11209 21.2467 2.98242 21.3115Z" fill="#4CA30D"/>
<path id="Shape_6" d="M0 16.0599C0.324165 16.384 0.64833 16.7082 0.972495 17.0324C1.94499 18.0697 2.98232 19.107 4.27898 19.7553C5.77014 20.5333 7.39096 20.3388 9.01179 20.3388H18.9961L16.5324 17.0324C12.2534 17.0324 6.80747 17.0324 4.08448 17.0324C2.72299 17.0324 1.55599 16.773 0.453829 16.0599C0.25933 15.995 0.129666 15.995 0 16.0599Z" fill="#3B7C0F"/>
</g>
</svg>
