<svg width="30" height="34" viewBox="0 0 30 34" fill="none" xmlns="http://www.w3.org/2000/svg">
<g id="Logomark">
<path id="Shape" fill-rule="evenodd" clip-rule="evenodd" d="M15.4491 1.58595C15.0703 1.50805 14.6797 1.50805 14.3009 1.58595C13.863 1.67601 13.4717 1.8952 13.1606 2.06946L13.0758 2.11684L2.53115 7.97496C2.502 7.99115 2.47196 8.0077 2.44118 8.02465C2.11183 8.20606 1.69771 8.43415 1.3797 8.77924C1.10476 9.07759 0.896685 9.43122 0.769402 9.81645C0.62218 10.262 0.623903 10.7348 0.625272 11.1108C0.6254 11.1459 0.625525 11.1802 0.625525 11.2136V22.78C0.625525 22.8134 0.6254 22.8477 0.625272 22.8828C0.623903 23.2588 0.62218 23.7316 0.769402 24.1772C0.896685 24.5624 1.10476 24.916 1.3797 25.2144C1.69772 25.5595 2.11183 25.7876 2.44118 25.969C2.47196 25.9859 2.502 26.0025 2.53115 26.0187L13.0758 31.8768L13.1606 31.9242C13.4717 32.0984 13.863 32.3176 14.3009 32.4077C14.6797 32.4856 15.0703 32.4856 15.4491 32.4077C15.887 32.3176 16.2783 32.0984 16.5894 31.9242L16.6742 31.8768L27.2189 26.0187C27.2317 26.0115 27.2448 26.0043 27.258 25.997C27.2747 25.9878 27.2916 25.9784 27.3088 25.969C27.6382 25.7876 28.0523 25.5595 28.3703 25.2144C28.6452 24.916 28.8533 24.5624 28.9806 24.1772C29.1278 23.7316 29.1261 23.2588 29.1247 22.8828C29.1246 22.8477 29.1245 22.8134 29.1245 22.78V11.2136C29.1245 11.1802 29.1246 11.146 29.1247 11.1108C29.1261 10.7348 29.1278 10.262 28.9806 9.81645C28.8533 9.43122 28.6452 9.07759 28.3703 8.77924C28.0523 8.43414 27.6382 8.20605 27.3088 8.02464L27.3077 8.02401C27.2773 8.00728 27.2476 7.99094 27.2189 7.97495L16.6742 2.11684L16.5894 2.06946C16.2783 1.8952 15.887 1.676 15.4491 1.58595ZM14.4598 4.60809C14.6757 4.48813 14.786 4.42751 14.8682 4.38785L14.875 4.38459L14.8818 4.38785C14.964 4.42751 15.0743 4.48813 15.2902 4.60809L24.7653 9.87204L14.875 15.3667L4.98464 9.87207L14.4598 4.60809ZM3.47542 12.2938L13.45 17.8352L13.45 28.8246L3.91518 23.5274C3.68726 23.4008 3.57089 23.3355 3.48924 23.2835L3.48235 23.279L3.48183 23.2709C3.47601 23.1742 3.47542 23.0408 3.47542 22.78V12.2938Z" fill="#181D27"/>
</g>
</svg>
