<svg width="34" height="34" viewBox="0 0 34 34" fill="none" xmlns="http://www.w3.org/2000/svg">
<g id="Logomark" clip-path="url(#clip0_2202_24)">
<g id="Shape">
<path d="M20.5773 2.09127L17.4117 1.24304L14.744 11.199L12.3356 2.2107L9.1699 3.05893L11.7721 12.7702L5.29068 6.28881L2.97328 8.6062L10.0826 15.7155L1.22909 13.3432L0.380859 16.5088L10.0544 19.1008C9.94363 18.6232 9.88503 18.1254 9.88503 17.614C9.88503 13.994 12.8196 11.0594 16.4396 11.0594C20.0597 11.0594 22.9942 13.994 22.9942 17.614C22.9942 18.1221 22.9364 18.6168 22.827 19.0917L31.6184 21.4473L32.4666 18.2817L22.7546 15.6794L31.6087 13.3069L30.7604 10.1413L21.0489 12.7435L27.5302 6.2622L25.2128 3.9448L18.2022 10.9555L20.5773 2.09127Z" fill="#FF4405"/>
<path d="M22.8177 19.1285C22.5463 20.276 21.9733 21.3068 21.1871 22.1327L27.5561 28.5017L29.8735 26.1843L22.8177 19.1285Z" fill="#FF4405"/>
<path d="M21.1228 22.1992C20.3271 23.0119 19.3216 23.6184 18.194 23.9309L20.5115 32.5802L23.6771 31.7319L21.1228 22.1992Z" fill="#FF4405"/>
<path d="M18.0757 23.9626C17.5526 24.0971 17.0042 24.1686 16.4391 24.1686C15.8337 24.1686 15.2474 24.0865 14.6908 23.9328L12.3712 32.5899L15.5367 33.4381L18.0757 23.9626Z" fill="#FF4405"/>
<path d="M14.5789 23.9009C13.4685 23.5728 12.4808 22.9586 11.7014 22.1436L5.31668 28.5283L7.63408 30.8457L14.5789 23.9009Z" fill="#FF4405"/>
<path d="M11.6488 22.0872C10.8827 21.267 10.3246 20.25 10.059 19.1202L1.23889 21.4836L2.08711 24.6492L11.6488 22.0872Z" fill="#FF4405"/>
</g>
</g>
<defs>
<clipPath id="clip0_2202_24">
<rect width="33" height="33" fill="white" transform="translate(0.125 0.5)"/>
</clipPath>
</defs>
</svg>
