<svg width="34" height="34" viewBox="0 0 34 34" fill="none" xmlns="http://www.w3.org/2000/svg">
<g id="Logomark">
<circle id="Shape" cx="17" cy="17.1874" r="15" stroke="#6927DA" stroke-width="3"/>
<path id="Shape_2" d="M22.8336 23.0212C19.7682 26.0866 16.3081 28.0738 13.2514 28.8598C10.157 29.6555 7.77018 29.1709 6.39338 27.7941C5.01657 26.4173 4.53201 24.0305 5.32772 20.9361C6.11373 17.8794 8.10089 14.4194 11.1663 11.3539C14.2318 8.28844 17.6918 6.30128 20.7485 5.51527C23.843 4.71956 26.2298 5.20412 27.6066 6.58093C28.9834 7.95773 29.4679 10.3445 28.6722 13.439C27.8862 16.4957 25.8991 19.9557 22.8336 23.0212Z" stroke="#6927DA" stroke-width="3"/>
<path id="Shape_3" d="M22.8337 11.3538C25.8991 14.4193 27.8863 17.8793 28.6723 20.936C29.468 24.0305 28.9834 26.4173 27.6066 27.7941C26.2298 29.1709 23.843 29.6554 20.7486 28.8597C17.6919 28.0737 14.2319 26.0865 11.1664 23.0211C8.10094 19.9556 6.11378 16.4956 5.32777 13.4389C4.53206 10.3445 5.01662 7.95766 6.39343 6.58086C7.77023 5.20405 10.157 4.71949 13.2515 5.5152C16.3082 6.30121 19.7682 8.28838 22.8337 11.3538Z" stroke="#6927DA" stroke-width="3"/>
</g>
</svg>
