<?xml version="1.0" encoding="utf-8"?>
<!-- Generator: Adobe Illustrator 21.0.0, SVG Export Plug-In . SVG Version: 6.00 Build 0)  -->
<svg version="1.1" id="Layer_1" xmlns="http://www.w3.org/2000/svg" xmlns:xlink="http://www.w3.org/1999/xlink" x="0px" y="0px"
	 viewBox="0 0 24 23.8" style="enable-background:new 0 0 24 23.8;" xml:space="preserve">
<style type="text/css">
	.st0{fill:#95989A;}
	.st1{fill:#4D4D4D;}
</style>
<path id="Path_4306" class="st0" d="M15.3,23.8L15.3,23.8L15.3,23.8l4.9,0.1c1,0,2-0.4,2.7-1.1C23.6,22,24,21,24,19.9V3.9l0,0
	c0-0.5-0.1-1-0.3-1.5c-0.4-0.9-1.2-1.7-2.1-2.1C21.1,0.1,20.6,0,20.1,0H3.8c-0.5,0-1,0.1-1.5,0.3c-0.9,0.4-1.7,1.2-2,2.1
	C0.1,2.9,0,3.4,0,3.9v16c0,0.5,0.1,1.1,0.3,1.6c0.2,0.5,0.5,1,0.9,1.3l0,0c0.4,0.3,0.8,0.6,1.2,0.8c0.4,0.2,0.9,0.3,1.4,0.3
	L15.3,23.8l0.1-6.5l1.6-0.9v5.9h3.2c0.6,0,1.2-0.2,1.6-0.7c0.5-0.4,0.7-1.1,0.7-1.7V3.9c0-1.3-1-2.3-2.3-2.3h-8.5l5.9,3.6l0.7,0.4
	l0.1,0l0.2,0.1V12l-7.3,4.4l2.6,1.6v1.8l-6.7-4.1v3l6.3,3.9h0L15.3,23.8L15.3,23.8z M7.1,1.6v3.5l0,0v0.4l4.1,2.5V6.1L8.7,4.6v-3
	l8,4.9L5.6,13.3v6.4l4.3,2.6H3.9c-1.3,0-2.3-1.1-2.3-2.3c0,0,0,0,0,0v-16c0-1.3,1-2.3,2.3-2.3H7.1z M16.9,11.1l-7.2,4.4l-2.5-1.5
	l9.7-5.9L16.9,11.1L16.9,11.1z"/>
<path id="Path_4307" class="st1" d="M15.3,23.8L15.3,23.8L15.3,23.8l0.1-6.5l1.6-0.9v5.9h3.2c0.6,0,1.2-0.2,1.6-0.7
	c0.5-0.4,0.7-1.1,0.7-1.7V3.9c0-1.3-1-2.3-2.3-2.3h-8.5l5.9,3.6l0.7,0.4l0.1,0l0.2,0.1V12l-7.3,4.4l2.6,1.6v1.8l-6.7-4.1v3l6.3,3.8
	h0L15.3,23.8L15.3,23.8z M7.1,1.6v3.5l0,0v0.4l4.1,2.5V6.1L8.7,4.6v-3l8,4.9L5.6,13.3v6.4l4.3,2.6H3.9c-1.3,0-2.3-1.1-2.3-2.3
	c0,0,0,0,0,0v-16c0-1.3,1-2.3,2.3-2.3H7.1z M16.9,11.1l-7.2,4.4l-2.5-1.5l9.7-5.9L16.9,11.1L16.9,11.1z"/>
</svg>
