<?xml version="1.0" encoding="utf-8"?>
<!-- Generator: Adobe Illustrator 21.0.0, SVG Export Plug-In . SVG Version: 6.00 Build 0)  -->
<svg version="1.1" id="Layer_1" xmlns="http://www.w3.org/2000/svg" xmlns:xlink="http://www.w3.org/1999/xlink" x="0px" y="0px"
	 viewBox="0 0 241 109.2" enable-background="new 0 0 241 109.2" xml:space="preserve">
<path id="Path_4217" fill="none" stroke="#FFFFFF" stroke-linecap="round" stroke-linejoin="round" d="M69.4,37.8h101.1v63.5H69.4
	V37.8z"/>
<path id="Rectangle_2111" fill="#4D4D4D" stroke="#FFFFFF" stroke-linecap="round" stroke-linejoin="round" d="M134,57.7h25.4
	c0.4,0,0.8,0.4,0.8,0.8v42c0,0.4-0.4,0.8-0.8,0.8H134c-0.4,0-0.8-0.4-0.8-0.8v-42C133.2,58.1,133.6,57.7,134,57.7z"/>
<circle id="Ellipse_954" fill="#FFFFFF" cx="137.8" cy="77.4" r="1.5"/>
<circle id="Ellipse_953" fill="#FFFFFF" cx="137.8" cy="83.9" r="1.5"/>
<path id="Path_4187" fill="#FFFFFF" d="M137.8,76.8c-0.3,0-0.5,0.2-0.5,0.5v6.8c0.1,0.3,0.3,0.6,0.6,0.5c0.2-0.1,0.4-0.3,0.4-0.5
	v-6.8C138.3,77,138.1,76.8,137.8,76.8z"/>
<rect id="Rectangle_2135" x="119.1" y="48" fill="#BABABA" width="2.8" height="2.2"/>
<path id="Rectangle_2109" fill="#4D4D4D" stroke="#FFFFFF" stroke-linecap="round" stroke-linejoin="round" d="M66.3,101.3h108.4
	c0.4,0,0.8,0.4,0.8,0.8v4.5c0,0.4-0.4,0.8-0.8,0.8H66.3c-0.4,0-0.8-0.4-0.8-0.8v-4.5C65.5,101.7,65.8,101.3,66.3,101.3z"/>
<path id="Path_4191" fill="#4D4D4D" stroke="#FFFFFF" stroke-linecap="round" stroke-linejoin="round" d="M78.5,43.7
	c0,3.3,2.6,5.9,5.9,5.9h0c3.3,0,5.9-2.6,5.9-5.9V40H78.6L78.5,43.7L78.5,43.7z"/>
<path id="Path_4192" fill="#4D4D4D" stroke="#FFFFFF" stroke-linecap="round" stroke-linejoin="round" d="M102.2,43.7
	c0,3.3,2.6,5.9,5.9,5.9h0c3.3,0,5.9-2.6,5.9-5.9V40h-11.8L102.2,43.7L102.2,43.7z"/>
<path id="Path_4193" fill="#4D4D4D" stroke="#FFFFFF" stroke-linecap="round" stroke-linejoin="round" d="M125.9,43.7
	c0,3.3,2.6,5.9,5.9,5.9h0c3.3,0,5.9-2.6,5.9-5.9V40h-11.8L125.9,43.7L125.9,43.7z"/>
<path id="Path_4194" fill="#4D4D4D" stroke="#FFFFFF" stroke-linecap="round" stroke-linejoin="round" d="M149.5,40v3.7
	c0,3.3,2.6,5.9,5.9,5.9h0c3.3,0,5.9-2.6,5.9-5.9V40L149.5,40L149.5,40z"/>
<path id="Path_4195" fill="#4D4D4D" stroke="#FFFFFF" stroke-linecap="round" stroke-linejoin="round" d="M78.5,40h11.8l1.4-4.3
	H80.5L78.5,40z"/>
<path id="Path_4196" fill="#4D4D4D" stroke="#FFFFFF" stroke-linecap="round" stroke-linejoin="round" d="M102.2,40H114l0.3-4.3H103
	L102.2,40z"/>
<path id="Path_4197" fill="#4D4D4D" stroke="#FFFFFF" stroke-linecap="round" stroke-linejoin="round" d="M125.6,35.7l0.3,4.3h11.9
	l-0.9-4.3H125.6z"/>
<path id="Path_4198" fill="#4D4D4D" stroke="#FFFFFF" stroke-linecap="round" stroke-linejoin="round" d="M159.4,35.7h-11.3l1.4,4.3
	h11.8L159.4,35.7z"/>
<path id="Path_4199" fill="#4D4D4D" stroke="#FFFFFF" stroke-linecap="round" stroke-linejoin="round" d="M66.7,43.7
	c0,3.3,2.6,5.9,5.9,5.9h0c3.3,0,5.9-2.6,5.9-5.9V40H66.7V43.7z"/>
<path id="Path_4200" fill="#4D4D4D" stroke="#FFFFFF" stroke-linecap="round" stroke-linejoin="round" d="M90.4,43.7
	c0,3.3,2.6,5.9,5.9,5.9h0c3.3,0,5.9-2.6,5.9-5.9V40H90.4L90.4,43.7L90.4,43.7z"/>
<path id="Path_4201" fill="#4D4D4D" stroke="#FFFFFF" stroke-linecap="round" stroke-linejoin="round" d="M114,43.7
	c0,3.3,2.6,6,5.9,6s6-2.6,6-5.9c0-0.1,0-0.1,0-0.2l0,0V40h-11.8L114,43.7L114,43.7z"/>
<path id="Path_4202" fill="#4D4D4D" stroke="#FFFFFF" stroke-linecap="round" stroke-linejoin="round" d="M137.7,43.7
	c0,3.3,2.6,5.9,5.9,5.9h0c3.3,0,5.9-2.6,5.9-5.9V40h-11.8L137.7,43.7L137.7,43.7z"/>
<path id="Path_4203" fill="#4D4D4D" stroke="#FFFFFF" stroke-linecap="round" stroke-linejoin="round" d="M161.3,40v3.7
	c0,3.3,2.6,5.9,5.9,5.9h0c3.3,0,5.9-2.6,5.9-5.9V40L161.3,40z"/>
<path id="Path_4204" fill="#4D4D4D" stroke="#FFFFFF" stroke-linecap="round" stroke-linejoin="round" d="M66.7,40h11.9l2-4.3H69.2
	L66.7,40z"/>
<path id="Path_4205" fill="#4D4D4D" stroke="#FFFFFF" stroke-linecap="round" stroke-linejoin="round" d="M90.4,40h11.8l0.9-4.3
	H91.8L90.4,40z"/>
<path id="Path_4206" fill="#4D4D4D" stroke="#FFFFFF" stroke-linecap="round" stroke-linejoin="round" d="M114.3,35.7L114,40h11.8
	l-0.3-4.3H114.3z"/>
<path id="Path_4207" fill="#4D4D4D" stroke="#FFFFFF" stroke-linecap="round" stroke-linejoin="round" d="M136.8,35.7l0.9,4.3h11.8
	l-1.4-4.3H136.8z"/>
<path id="Path_4208" fill="#4D4D4D" stroke="#FFFFFF" stroke-linecap="round" stroke-linejoin="round" d="M170.6,35.7h-11.3l2,4.3
	h11.9L170.6,35.7z"/>
<path id="Path_4216" fill="#4D4D4D" stroke="#FFFFFF" stroke-linecap="round" stroke-linejoin="round" d="M171.5,0.5H68.4
	c-1.1,0-1.9,1.1-1.9,2.6l0,0V23c0,1.4,0.9,2.6,1.9,2.6h103.2c1.1,0,1.9-1.1,1.9-2.6l0,0V3.1C173.4,1.6,172.6,0.5,171.5,0.5z"/>
<path id="Path_4150" fill="none" stroke="#FFFFFF" stroke-linecap="round" stroke-linejoin="round" d="M12.9,107.7h215.3"/>
<path id="Path_4142" fill="none" stroke="#4D4D4D" stroke-width="3" stroke-linecap="round" stroke-linejoin="round" d="M233,107.7
	h6.5"/>
<path id="Path_4143" fill="none" stroke="#4D4D4D" stroke-width="3" stroke-linecap="round" stroke-linejoin="round" d="M1.5,107.7
	H8"/>
<path id="Path_3950" fill="none" stroke="#FFFFFF" stroke-linecap="round" stroke-linejoin="round" d="M191.1,92.4v15"/>
<path id="Path_3944" fill="#FFFFFF" stroke="#95989A" stroke-width="5" stroke-linecap="round" stroke-linejoin="round" stroke-miterlimit="10" d="
	M185.6,74.3"/>
<path id="Path_3945" fill="#4D4D4D" stroke="#FFFFFF" stroke-linecap="round" stroke-linejoin="round" stroke-miterlimit="10" d="
	M185.6,74.3c-0.4-0.9-0.6-1.8-0.6-2.7c0-3.4,2.8-6.2,6.2-6.2c3.4,0,6.2,2.8,6.2,6.2c0,0.9-0.2,1.9-0.6,2.7"/>
<path id="Path_3948" fill="#4D4D4D" stroke="#FFFFFF" stroke-linecap="round" stroke-linejoin="round" stroke-miterlimit="10" d="
	M193.8,72.7c3.3,1.2,5.5,4.3,5.5,7.8c0,1.7-0.5,3.4-1.5,4.8c-1,1.3-14.5,0-14.5,0s-0.5-4.9-0.1-6.9c0.5-1.6,1.2-3,2.3-4.3"/>
<path id="Path_3949" fill="#4D4D4D" stroke="#FFFFFF" stroke-linecap="round" stroke-linejoin="round" stroke-miterlimit="10" d="
	M199.3,81.8c4.1,4.5,3.8,11.4-0.6,15.5c-4.5,4.1-11.4,3.8-15.5-0.6c-4.1-4.5-3.8-11.4,0.6-15.5c0.7-0.7,1.6-1.3,2.5-1.7"/>
<path id="Path_3950-2" fill="none" stroke="#FFFFFF" stroke-linecap="round" stroke-linejoin="round" d="M202.2,96.2v11.2"/>
<path id="Path_3944-2" fill="#FFFFFF" stroke="#95989A" stroke-width="5" stroke-linecap="round" stroke-linejoin="round" stroke-miterlimit="10" d="
	M198.1,82.7"/>
<path id="Path_3945-2" fill="#4D4D4D" stroke="#FFFFFF" stroke-linecap="round" stroke-linejoin="round" stroke-miterlimit="10" d="
	M198.1,82.7c-0.3-0.6-0.4-1.3-0.4-2c0-2.5,2.1-4.6,4.7-4.6c2.5,0,4.5,2,4.6,4.5l0,0c0,0.7-0.2,1.4-0.4,2"/>
<path id="Path_3948-2" fill="#4D4D4D" stroke="#FFFFFF" stroke-linecap="round" stroke-linejoin="round" stroke-miterlimit="10" d="
	M204.2,81.5c2.5,0.8,4.1,3.2,4.1,5.8c0,1.3-0.4,2.5-1.1,3.6c-0.7,1-10.8,0-10.8,0c-0.2-1.7-0.2-3.4-0.1-5.2c0.4-1.2,0.9-2.3,1.7-3.2
	"/>
<path id="Path_3949-2" fill="#4D4D4D" stroke="#FFFFFF" stroke-linecap="round" stroke-linejoin="round" stroke-miterlimit="10" d="
	M208.2,88.3c3,3.3,2.8,8.5-0.6,11.5c-3.3,3-8.5,2.8-11.5-0.6c-1.4-1.5-2.1-3.5-2.1-5.5c0-3.1,1.7-5.9,4.5-7.3"/>
<path id="Path_3950-3" fill="none" stroke="#FFFFFF" stroke-linecap="round" stroke-linejoin="round" d="M49,92.4v15"/>
<path id="Path_3944-3" fill="#FFFFFF" stroke="#95989A" stroke-width="5" stroke-linecap="round" stroke-linejoin="round" stroke-miterlimit="10" d="
	M43.5,74.3"/>
<path id="Path_3945-3" fill="#4D4D4D" stroke="#FFFFFF" stroke-linecap="round" stroke-linejoin="round" stroke-miterlimit="10" d="
	M43.5,74.3c-0.4-0.9-0.6-1.8-0.6-2.7c0-3.4,2.8-6.2,6.2-6.2c3.4,0,6.2,2.8,6.2,6.2c0,0.9-0.2,1.9-0.6,2.7"/>
<path id="Path_3947" fill="#FFFFFF" stroke="#95989A" stroke-width="5" stroke-linecap="round" stroke-linejoin="round" stroke-miterlimit="10" d="
	M40.9,81.8c-0.1-0.5-0.1-0.9-0.1-1.4c0-2.3,1-4.5,2.7-6.1"/>
<path id="Path_3948-3" fill="#4D4D4D" stroke="#FFFFFF" stroke-linecap="round" stroke-linejoin="round" stroke-miterlimit="10" d="
	M51.7,72.7c3.3,1.2,5.5,4.3,5.5,7.8c0,1.7-0.5,3.4-1.5,4.8c-1,1.3-14.5,0-14.5,0s-0.5-4.9-0.1-6.9c0.5-1.6,1.2-3,2.3-4.3"/>
<path id="Path_3949-3" fill="#4D4D4D" stroke="#FFFFFF" stroke-linecap="round" stroke-linejoin="round" stroke-miterlimit="10" d="
	M57.1,81.8c4.1,4.5,3.8,11.4-0.6,15.5c-4.5,4.1-11.4,3.8-15.5-0.6c-4.1-4.5-3.8-11.4,0.6-15.5c0.7-0.7,1.6-1.3,2.5-1.7"/>
<path id="Path_3950-4" fill="none" stroke="#FFFFFF" stroke-linecap="round" stroke-linejoin="round" d="M36.9,90.9v16.6"/>
<path id="Path_3944-4" fill="#FFFFFF" stroke="#95989A" stroke-width="5" stroke-linecap="round" stroke-linejoin="round" stroke-miterlimit="10" d="
	M30.8,70.9"/>
<path id="Path_3945-4" fill="#4D4D4D" stroke="#FFFFFF" stroke-linecap="round" stroke-linejoin="round" stroke-miterlimit="10" d="
	M30.8,70.9c-0.5-0.9-0.7-2-0.7-3c0-3.8,3-6.8,6.8-6.8c3.8,0,6.8,3,6.8,6.8c0,0,0,0,0,0c0,1-0.2,2.1-0.7,3"/>
<path id="Path_3948-4" fill="#4D4D4D" stroke="#FFFFFF" stroke-linecap="round" stroke-linejoin="round" stroke-miterlimit="10" d="
	M39.9,69.1c3.6,1.3,6.1,4.7,6.1,8.5c0,1.9-0.6,3.7-1.7,5.2c-1.1,1.5-16,0-16,0s-0.6-5.4-0.1-7.6c0.5-1.7,1.4-3.4,2.5-4.8"/>
<path id="Path_3949-4" fill="#4D4D4D" stroke="#FFFFFF" stroke-linecap="round" stroke-linejoin="round" stroke-miterlimit="10" d="
	M45.9,79.1c4.5,4.9,4.1,12.5-0.9,17c-4.9,4.5-12.5,4.1-17-0.9c-4.5-4.9-4.1-12.5,0.9-17c0.8-0.7,1.7-1.3,2.7-1.8"/>
<path id="Rectangle_2144" fill="#4D4D4D" stroke="#FFFFFF" stroke-linecap="round" stroke-linejoin="round" d="M79.8,61.6H123
	c0.4,0,0.8,0.4,0.8,0.8v24.2c0,0.4-0.4,0.8-0.8,0.8H79.8c-0.4,0-0.8-0.4-0.8-0.8V62.4C79,61.9,79.4,61.6,79.8,61.6z"/>
<path id="Rectangle_2146" fill="#4D4D4D" stroke="#FFFFFF" stroke-linecap="round" stroke-linejoin="round" d="M75.2,86h52.4
	c0.2,0,0.4,0.1,0.4,0.4c0,0,0,0,0,0v4.7c0,0.2-0.1,0.4-0.4,0.4c0,0,0,0,0,0H75.2c-0.2,0-0.4-0.1-0.4-0.4c0,0,0,0,0,0v-4.7
	C74.8,86.2,75,86.1,75.2,86z"/>
<path id="Path_5262" fill="#FFFFFF" d="M98.6,16.3c-0.3,0-0.5,0-0.8-0.1c-0.2,0-0.4-0.1-0.6-0.2c-0.2-0.1-0.4-0.2-0.5-0.4
	c-0.2-0.2-0.3-0.4-0.4-0.6c-1.2,1-2.7,1.4-4.3,1.3c-0.9,0-1.8-0.1-2.7-0.4c-0.6-0.2-1.2-0.6-1.6-1.2c-0.1-0.3-0.2-0.5-0.3-0.8
	c0-0.2-0.1-0.4-0.1-0.6c0-0.1,0-0.2,0-0.4c0-0.2,0.1-0.5,0.1-0.7c0.1-0.3,0.2-0.5,0.3-0.8l1,0.6c-0.1,0.2-0.2,0.3-0.3,0.5
	c-0.1,0.2-0.1,0.3-0.1,0.5c0,0.1,0,0.1,0,0.2c0,0.1,0,0.2,0,0.4c0,0.2,0.1,0.3,0.2,0.4c0.1,0.2,0.3,0.3,0.4,0.4
	c0.2,0.1,0.5,0.2,0.7,0.3c0.3,0.1,0.6,0.1,1,0.2c0.4,0,0.7,0.1,1.1,0.1c0.4,0,0.7,0,1.1,0c0.3,0,0.6-0.1,0.9-0.1
	c0.3-0.1,0.5-0.1,0.8-0.2c0.2-0.1,0.4-0.2,0.6-0.4c0.1-0.1,0.3-0.3,0.4-0.4c0.1-0.2,0.2-0.3,0.2-0.5c0.1-0.2,0.1-0.4,0.2-0.5
	c0-0.2,0.1-0.4,0.1-0.5l1.2,0.3c-0.1,0.2-0.1,0.4-0.2,0.6c0,0.2-0.1,0.3-0.1,0.5v0.2c0,0.1,0,0.3,0.1,0.4c0,0.2,0.1,0.3,0.2,0.4
	c0.1,0.1,0.3,0.2,0.4,0.3c0.2,0.1,0.4,0.1,0.6,0.1h0.2v1.3H98.6z M92.3,11l-0.9,0.9L90.5,11l0.9-0.9L92.3,11z M94.3,11l-0.9,0.9
	L92.5,11l0.9-0.9L94.3,11z M98.6,15h0.7c0.2,0,0.3,0,0.5,0c0.2,0,0.4,0,0.5,0c0.2,0,0.3-0.1,0.5-0.1c0.1,0,0.3-0.1,0.4-0.2
	c0.1-0.1,0.2-0.2,0.3-0.3c0.1-0.2,0.1-0.3,0.1-0.5c0-0.3-0.1-0.5-0.2-0.8c-0.1-0.3-0.3-0.6-0.5-0.8c-0.2-0.3-0.5-0.6-0.7-0.9
	c-0.3-0.3-0.6-0.6-0.9-0.9l0.1-1.2l4.2-1.8l0.5,1.2l-3.4,1.5c0.2,0.1,0.3,0.3,0.5,0.4s0.3,0.3,0.5,0.5c0.2,0.2,0.4,0.5,0.6,0.8
	c0.2,0.2,0.3,0.5,0.4,0.8c0.1,0.2,0.2,0.5,0.2,0.7c0,0.2,0.1,0.4,0.1,0.6c0,0.3-0.1,0.7-0.2,1c-0.1,0.3-0.3,0.5-0.6,0.8
	c-0.2,0.2-0.5,0.4-0.8,0.5c-0.3,0.1-0.6,0.2-1,0.2h-1.7L98.6,15z M106.1,8c0.1,0.7,0.1,1.3,0.2,1.9s0.1,1.2,0.1,1.8
	c0,0.5,0,0.9,0,1.4s0,0.8,0,1.2c0,0.4,0,0.7,0,1c0,0.3,0,0.6,0,0.9l-1.4,0.2c0.1-1.1,0.1-2.2,0.1-3c0-0.4,0-0.7,0-1
	c0-0.7-0.1-1.4-0.1-2s-0.1-1.2-0.1-1.8L106.1,8z M109.7,12.9c0.1,0.2,0.1,0.4,0.2,0.7c0.1,0.2,0.1,0.5,0.2,0.7
	c0.1,0.2,0.1,0.5,0.1,0.7c0,0.2,0.1,0.5,0.1,0.7c0,0.3,0,0.6-0.1,0.9c-0.1,0.3-0.2,0.6-0.4,0.9c-0.2,0.3-0.4,0.5-0.6,0.8
	c-0.2,0.3-0.5,0.5-0.8,0.7c-0.3,0.2-0.6,0.4-0.9,0.6c-0.3,0.2-0.6,0.4-0.9,0.5l-0.6-1.2c0.2-0.1,0.5-0.3,0.7-0.4
	c0.2-0.1,0.5-0.3,0.7-0.5c0.2-0.2,0.4-0.3,0.6-0.5c0.2-0.2,0.3-0.4,0.5-0.6c0.1-0.2,0.2-0.4,0.3-0.6c0.1-0.2,0.1-0.4,0.1-0.6
	c0-0.2,0-0.4-0.1-0.6c0-0.2-0.1-0.4-0.2-0.6c-0.1-0.2-0.1-0.4-0.2-0.6c-0.1-0.2-0.1-0.4-0.2-0.5L109.7,12.9z M108.8,11l-0.9,0.9
	L107,11l0.9-0.9L108.8,11z M110.8,11l-0.9,0.9L109,11l0.9-0.9L110.8,11z M108.1,9.5l0.8-0.8l0.8,0.8l-0.8,0.8L108.1,9.5z M117,16.3
	c-0.3,0-0.6,0-0.9-0.1c-0.3-0.1-0.5-0.2-0.7-0.4c-0.2-0.2-0.4-0.4-0.5-0.6c-0.1-0.3-0.2-0.5-0.2-0.8c0-0.8,0.4-1.5,0.9-2.1
	c0.1-0.1,0.2-0.2,0.3-0.3s0.2-0.2,0.2-0.2l-0.1-0.1c0,0-0.1-0.1-0.2-0.2l0.8-1c0.1,0.1,0.3,0.3,0.5,0.5c0.2,0.2,0.5,0.5,0.8,0.8
	c0.7,0.7,1.2,1.6,1.3,2.6c0,0.3,0,0.6-0.2,0.9c-0.1,0.2-0.3,0.4-0.5,0.6c-0.2,0.2-0.5,0.3-0.7,0.4C117.6,16.3,117.3,16.3,117,16.3
	L117,16.3z M118.1,14.4c0-0.1,0-0.3-0.1-0.4c-0.1-0.2-0.2-0.3-0.3-0.5c-0.1-0.2-0.2-0.4-0.4-0.5c-0.1-0.2-0.3-0.3-0.5-0.5
	c-0.1,0.1-0.2,0.2-0.3,0.4c-0.1,0.2-0.2,0.3-0.3,0.5c-0.1,0.2-0.2,0.3-0.2,0.5c-0.1,0.1-0.1,0.3-0.1,0.5c0,0.1,0,0.2,0.1,0.3
	c0.1,0.1,0.2,0.1,0.3,0.2c0.1,0,0.2,0.1,0.4,0.1c0.1,0,0.2,0,0.3,0c0.1,0,0.3,0,0.4,0c0.1,0,0.2,0,0.4-0.1c0.1,0,0.2-0.1,0.3-0.2
	C118,14.6,118.1,14.5,118.1,14.4z M123,16.3h-0.2c-0.6,0-1.2-0.1-1.6-0.5c-0.4-0.4-0.6-1-0.6-1.6c0-0.1,0-0.3,0-0.5
	c0-0.3,0-0.6,0-0.9c0-0.2,0-0.5,0-0.7c0-0.3,0-0.5,0-0.8c0-0.3,0-0.5,0-0.8s0-0.5,0-0.8c0-0.2,0-0.5-0.1-0.7c0-0.2-0.1-0.4-0.1-0.6
	l1.3-0.4c0,0.2,0.1,0.4,0.1,0.7s0.1,0.6,0.1,0.9c0,0.3,0,0.7,0.1,1s0,0.7,0,1c0,0.2,0,0.4,0,0.6c0,0.2,0,0.4,0,0.5
	c0,0.1,0,0.3,0,0.4c0,0.1,0,0.2,0,0.3c0,0.1,0,0.2,0,0.3s0,0.2,0,0.3v0.1c0,0.1,0,0.2,0,0.3c0,0.1,0.1,0.2,0.1,0.2
	c0.1,0.1,0.2,0.1,0.3,0.1c0.1,0,0.2,0,0.4,0h0.2L123,16.3z M122.7,15h1.6c0.2,0,0.4,0,0.5-0.1c0.1,0,0.3-0.1,0.4-0.2
	c0.1-0.1,0.2-0.2,0.3-0.3c0.1-0.1,0.1-0.2,0.1-0.3c0-0.2,0-0.4-0.1-0.5c-0.1-0.2-0.2-0.4-0.3-0.6c-0.1-0.2-0.2-0.4-0.4-0.6
	c-0.1-0.2-0.3-0.4-0.5-0.6c-0.2-0.2-0.3-0.4-0.5-0.5c-0.2-0.2-0.3-0.3-0.5-0.4l0.1-1.5l4.6-1.9l0.5,1.2l-3.9,1.6
	c0.2,0.2,0.5,0.4,0.7,0.7c0.2,0.2,0.4,0.4,0.5,0.7c0.2,0.2,0.3,0.5,0.4,0.7c0.1,0.2,0.3,0.5,0.4,0.7c0.1,0.2,0.2,0.3,0.3,0.5
	s0.2,0.3,0.3,0.5v0c0.1,0.1,0.2,0.3,0.3,0.4c0.1,0.1,0.2,0.2,0.3,0.3c0.1,0.1,0.3,0.2,0.4,0.2c0.2,0.1,0.3,0.1,0.5,0.1h0.3v1.3H129
	c-0.3,0-0.5,0-0.8-0.1c-0.2,0-0.4-0.1-0.6-0.2c-0.2-0.1-0.4-0.2-0.5-0.3c-0.2-0.1-0.3-0.3-0.5-0.5c-0.1,0.2-0.3,0.3-0.4,0.5
	c-0.2,0.1-0.3,0.2-0.5,0.3c-0.2,0.1-0.4,0.1-0.6,0.2c-0.2,0-0.4,0.1-0.6,0.1h-1.8L122.7,15z M128,6.9l-4.4,1.8l0-0.7l4.1-1.7
	L128,6.9z M129.2,15c0.2,0,0.4,0,0.5-0.1c0.2-0.1,0.3-0.2,0.4-0.3c0.1-0.1,0.2-0.3,0.3-0.5c0.1-0.2,0.2-0.4,0.2-0.5
	c0.1-0.2,0.1-0.4,0.2-0.6s0.1-0.3,0.1-0.5l1.3,0.3c0,0.1-0.1,0.2-0.1,0.4c-0.1,0.2-0.1,0.3-0.1,0.5c0,0.2-0.1,0.3-0.1,0.5
	c0,0.1,0,0.2,0,0.4c0,0,0,0.1,0,0.2c0,0.1,0,0.2,0.1,0.3c0.1,0.1,0.2,0.1,0.3,0.1c0.2,0,0.3,0,0.4-0.1c0.1-0.1,0.2-0.2,0.3-0.4
	c0.1-0.2,0.2-0.3,0.3-0.5c0.1-0.2,0.1-0.4,0.2-0.6c0.1-0.2,0.1-0.4,0.1-0.6s0.1-0.4,0.1-0.5l1.2,0.2c0,0.1,0,0.2,0,0.3
	c0,0.1,0,0.2-0.1,0.4c0,0.1,0,0.3-0.1,0.4c0,0.1,0,0.3,0,0.4v0.1c0,0.1,0,0.2,0,0.3c0,0.1,0.1,0.2,0.1,0.3c0.1,0.1,0.1,0.1,0.2,0.2
	c0.1,0.1,0.2,0.1,0.3,0.1c0.2,0,0.4-0.1,0.6-0.2c0.2-0.1,0.3-0.4,0.2-0.6c0-0.2,0-0.4-0.1-0.6c0-0.2-0.1-0.4-0.2-0.6
	c-0.1-0.2-0.1-0.4-0.2-0.6s-0.1-0.3-0.2-0.5l1.1-0.6c0,0,0.1,0.1,0.1,0.2s0.1,0.2,0.2,0.4c0.1,0.1,0.1,0.3,0.2,0.5s0.1,0.4,0.2,0.6
	c0.1,0.2,0.1,0.4,0.1,0.6c0,0.2,0,0.4,0.1,0.6c0,0.3,0,0.6-0.1,0.9c-0.1,0.3-0.2,0.5-0.4,0.7c-0.2,0.2-0.4,0.3-0.7,0.4
	c-0.3,0.1-0.6,0.2-0.9,0.1h-0.1c-0.2,0-0.3,0-0.4-0.1c-0.1,0-0.3-0.1-0.4-0.2c-0.1-0.1-0.2-0.2-0.3-0.3c-0.1-0.1-0.2-0.2-0.2-0.3
	c-0.1,0.1-0.2,0.2-0.3,0.3c-0.1,0.1-0.2,0.2-0.3,0.3c-0.1,0.1-0.3,0.1-0.4,0.2c-0.2,0-0.4,0.1-0.5,0.1h0c-0.1,0-0.3,0-0.4-0.1
	c-0.1,0-0.3-0.1-0.4-0.2c-0.1-0.1-0.2-0.2-0.3-0.3c-0.1-0.1-0.2-0.2-0.3-0.3c-0.1,0.1-0.1,0.2-0.2,0.3c-0.1,0.1-0.2,0.2-0.3,0.2
	c-0.1,0.1-0.3,0.1-0.5,0.2c-0.2,0-0.4,0.1-0.6,0.1h-0.2V15H129.2z M133.7,10l-0.9,0.9L132,10l0.9-0.9L133.7,10z M135.7,10l-0.9,0.9
	l-0.9-0.9l0.9-0.9L135.7,10z M133,8.5l0.8-0.8l0.8,0.8l-0.8,0.8L133,8.5z M140.4,12.9c-0.1,0-0.2,0-0.3,0.1
	c-0.1,0.1-0.2,0.2-0.3,0.3c-0.1,0.1-0.2,0.3-0.2,0.4c-0.1,0.1-0.1,0.3-0.1,0.4c0,0.1,0,0.3,0.1,0.4c0.1,0.1,0.2,0.2,0.3,0.2
	c0.1,0.1,0.2,0.1,0.4,0.1c0.1,0,0.3,0.1,0.4,0.1l0.2,0l0.3,0l0.3,0h0.3c0-0.1,0-0.3-0.1-0.4c0-0.2-0.1-0.3-0.2-0.5
	c-0.1-0.2-0.1-0.3-0.2-0.4c-0.1-0.1-0.2-0.3-0.3-0.4c-0.1-0.1-0.2-0.2-0.3-0.3C140.6,13,140.5,12.9,140.4,12.9z M138,18.7
	c0.5-0.1,0.9-0.2,1.4-0.4c0.4-0.1,0.7-0.3,1.1-0.6c0.3-0.2,0.5-0.4,0.7-0.7c0.2-0.2,0.3-0.4,0.4-0.7c-0.3,0-0.6,0-0.8,0
	c-0.3,0-0.5,0-0.8-0.1c-0.2,0-0.4-0.1-0.7-0.2c-0.2-0.1-0.4-0.2-0.5-0.4c-0.1-0.2-0.3-0.3-0.3-0.6c-0.1-0.2-0.1-0.5-0.1-0.8
	c0-0.2,0-0.4,0.1-0.6c0-0.2,0.1-0.4,0.2-0.6c0.1-0.2,0.2-0.4,0.3-0.6c0.1-0.2,0.2-0.3,0.4-0.5c0.1-0.1,0.3-0.2,0.5-0.3
	c0.2-0.1,0.4-0.1,0.6-0.1c0.6,0,1.1,0.3,1.5,0.7c0.2,0.2,0.3,0.4,0.4,0.6c0.1,0.2,0.2,0.5,0.3,0.7c0.1,0.3,0.2,0.5,0.2,0.8
	c0,0.3,0.1,0.6,0.1,0.8c0,0.4-0.1,0.8-0.2,1.3c-0.1,0.4-0.3,0.7-0.5,1.1c-0.2,0.3-0.4,0.6-0.7,0.9c-0.3,0.3-0.6,0.5-0.9,0.7
	c-0.3,0.2-0.7,0.4-1.1,0.5c-0.4,0.1-0.8,0.2-1.2,0.3L138,18.7z M147.7,16.3h-0.2c-0.1,0-0.2,0-0.3,0c-0.2,0-0.3-0.1-0.5-0.2
	c0,0.4-0.2,0.9-0.4,1.3c-0.2,0.4-0.5,0.8-0.8,1.1c-0.3,0.4-0.7,0.7-1.1,1c-0.4,0.3-0.8,0.5-1.3,0.8l-0.6-1.2
	c0.2-0.1,0.5-0.3,0.7-0.4c0.2-0.1,0.5-0.3,0.7-0.5c0.2-0.2,0.4-0.3,0.6-0.5c0.2-0.2,0.4-0.4,0.5-0.6c0.1-0.2,0.2-0.4,0.3-0.6
	c0.1-0.2,0.1-0.4,0.1-0.6c0-0.2,0-0.3-0.1-0.5c0-0.2-0.1-0.4-0.2-0.6c-0.1-0.2-0.1-0.4-0.2-0.6c-0.1-0.2-0.2-0.4-0.2-0.6l1.3-0.5
	c0.1,0.4,0.3,0.7,0.4,1c0.1,0.2,0.2,0.4,0.3,0.6c0.1,0.1,0.2,0.2,0.3,0.3c0.1,0.1,0.3,0.1,0.4,0.1h0.2L147.7,16.3z M147.6,15
	c0.4,0,0.7,0,1.1,0c0.3,0,0.6-0.1,0.9-0.1c0.2,0,0.5-0.1,0.7-0.2c0.2,0,0.3-0.1,0.5-0.2h-0.5c-0.3,0-0.6,0-0.9-0.1
	c-0.3-0.1-0.5-0.2-0.7-0.4c-0.2-0.2-0.4-0.4-0.5-0.6c-0.1-0.3-0.2-0.5-0.2-0.8c0-0.2,0-0.4,0.1-0.6c0-0.2,0.1-0.4,0.2-0.6
	c0.1-0.2,0.2-0.4,0.3-0.5c0.1-0.2,0.2-0.3,0.4-0.4c0.1-0.1,0.3-0.2,0.5-0.3c0.2-0.1,0.4-0.1,0.5-0.1c0.2,0,0.5,0,0.7,0.2
	c0.2,0.1,0.4,0.2,0.6,0.4c0.2,0.2,0.3,0.4,0.5,0.6c0.1,0.2,0.2,0.5,0.3,0.7c0.1,0.2,0.2,0.5,0.2,0.8c0,0.2,0.1,0.5,0.1,0.7
	c0,0.4,0,0.7-0.2,1c-0.1,0.3-0.3,0.5-0.5,0.8c-0.2,0.2-0.4,0.4-0.7,0.5c-0.3,0.1-0.6,0.2-0.9,0.3c-0.4,0.1-0.7,0.1-1.1,0.2
	c-0.4,0-0.8,0-1.2,0h-0.2V15H147.6z M149.8,11.5C149.8,11.5,149.8,11.5,149.8,11.5c-0.1,0-0.2,0-0.3,0.1c-0.1,0.1-0.2,0.1-0.3,0.2
	c-0.1,0.1-0.2,0.2-0.2,0.4c-0.1,0.1-0.1,0.3-0.1,0.4v0c0,0.1,0,0.2,0.1,0.3c0.1,0.1,0.1,0.1,0.2,0.2c0.1,0,0.2,0.1,0.3,0.1
	c0.1,0,0.3,0,0.4,0c0.1,0,0.2,0,0.3,0h0.2c0.1,0,0.2,0,0.3,0c0-0.1-0.1-0.3-0.1-0.5c-0.1-0.2-0.1-0.4-0.2-0.5
	c-0.1-0.2-0.2-0.3-0.3-0.5C150.1,11.6,150,11.5,149.8,11.5L149.8,11.5z M150.8,8.4l-1,1l-1-1l1-1L150.8,8.4z"/>
<line id="Line_831" fill="none" stroke="#FFFFFF" x1="87" y1="25.7" x2="87" y2="35.7"/>
<line id="Line_832" fill="none" stroke="#FFFFFF" x1="153" y1="25.7" x2="153" y2="35.7"/>
</svg>
