<svg xmlns="http://www.w3.org/2000/svg" viewBox="-7823.994 -14912 31.99 36">
  <defs>
    <style>
      .cls-1 {
        fill: none;
        stroke: #fff;
        stroke-linecap: round;
        stroke-linejoin: round;
        stroke-width: 2px;
      }
    </style>
  </defs>
  <g id="Group_6676" data-name="Group 6676" transform="translate(-7824.08 -14912)">
    <path id="Path_4498" data-name="Path 4498" class="cls-1" d="M14.421,18.6h0a6.827,6.827,0,0,1-6.767-6.285L7.4,8.29A6.8,6.8,0,0,1,14.17,1H14.8a6.8,6.8,0,0,1,6.767,7.29l-.376,4.022A6.827,6.827,0,0,1,14.421,18.6Z" transform="translate(1.597)"/>
    <path id="Path_4499" data-name="Path 4499" class="cls-1" d="M21.407,17.2a11.669,11.669,0,0,0,5.514,2.64c4.762,1.131,4.261,6.787,4.01,8.924-3.885,2.765-25.941,2.765-29.7,0C.98,26.627.478,20.971,5.24,19.84a11.669,11.669,0,0,0,5.514-2.64" transform="translate(0 4.162)"/>
  </g>
</svg>
