<?xml version="1.0" encoding="utf-8"?>
<!-- Generator: Adobe Illustrator 16.0.0, SVG Export Plug-In . SVG Version: 6.00 Build 0)  -->
<!DOCTYPE svg PUBLIC "-//W3C//DTD SVG 1.1//EN" "http://www.w3.org/Graphics/SVG/1.1/DTD/svg11.dtd">
<svg version="1.1" id="Layer_1" xmlns="http://www.w3.org/2000/svg" xmlns:xlink="http://www.w3.org/1999/xlink" x="0px" y="0px"
	 width="87px" height="63px" viewBox="0 0 87 63" enable-background="new 0 0 87 63" xml:space="preserve">
<path fill-rule="evenodd" clip-rule="evenodd" fill="#B3B3B3" d="M1.33,58.289H1.286c-0.673,0-1.219-0.546-1.219-1.22
	c0-0.673,0.546-1.219,1.219-1.219h38.35v2.438H1.33z"/>
<rect x="14.347" y="10.398" transform="matrix(-0.7071 0.7071 -0.7071 -0.7071 37.9579 10.1387)" fill="#4D4D4D" width="5.065" height="5.065"/>
<rect x="14.347" y="17.547" transform="matrix(-0.7072 0.7071 -0.7071 -0.7072 43.0124 22.3436)" fill="#4D4D4D" width="5.065" height="5.064"/>
<rect x="80.583" y="10.398" transform="matrix(-0.7071 0.7071 -0.7071 -0.7071 151.0288 -36.6978)" fill="#4D4D4D" width="5.064" height="5.065"/>
<rect x="80.582" y="17.546" transform="matrix(-0.7071 0.7072 -0.7072 -0.7071 156.0808 -24.4988)" fill="#4D4D4D" width="5.065" height="5.065"/>
<path fill-rule="evenodd" clip-rule="evenodd" fill="#4D4D4D" d="M11.224,48.336v-3.658h1.984v8.537h-1.984v-3.733H9.099v3.74H7.115
	v-8.544h1.984v3.648L11.224,48.336z M16.048,49.614h1.746l-0.915-3.067L16.048,49.614z M14.034,53.222l2.429-8.536h1.915
	l2.592,8.536h-2.106l-0.747-2.523h-2.375l-0.703,2.523H14.034z M25.776,53.222l-1.915-4.197l2.114-4.347h1.043L25.485,47.8
	l2.472,5.415L25.776,53.222z M21.791,53.222v-8.544h1.984v8.537L21.791,53.222z M28.573,53.222v-8.544h4.434v1.15h-2.449v2.485
	h2.318v1.15h-2.318v2.603h2.58v1.15L28.573,53.222z M35.732,53.222v-7.389h-1.887v-1.155H39.6v1.15h-1.887v7.387L35.732,53.222z"/>
<polygon fill-rule="evenodd" clip-rule="evenodd" fill="#FEA000" points="0.294,45.833 0.294,44.683 6.243,44.683 2.843,52.071 
	6.039,52.071 6.039,53.222 0.1,53.222 3.495,45.833 "/>
<polygon fill-rule="evenodd" clip-rule="evenodd" fill="#FEA000" points="42.844,27.262 58.351,38.324 63.157,34.231 65.072,31.797 
	42.844,15.941 "/>
<polygon fill="none" stroke="#4D4D4D" stroke-width="0.22" stroke-miterlimit="2.61" points="42.844,27.262 58.351,38.324 
	63.157,34.231 65.072,31.797 42.844,15.941 "/>
<path fill-rule="evenodd" clip-rule="evenodd" fill="#4D4D4D" d="M44.733,25.58l14.522,10.367l0.02,0.016v0.025L59.051,38.8v0.077
	l-0.063-0.047L42.21,26.894l-0.018-0.013V16.554h0.038l1.248-0.174h0.03l21.589,15.371l0.018,0.013v11.354l-0.069-0.049
	c-2.472-1.764-2.35-2.605-2.231-3.38c0.118-0.444,0.034-0.919-0.23-1.296v-0.025V34.41v-0.025l0.611-0.823l-0.604-0.476
	l-17.86-12.712L44.733,25.58z"/>
<polygon fill="#4D4D4D" points="42.21,16.332 65.047,0.048 65.115,0 65.115,0.087 65.115,11.408 65.115,11.431 65.098,11.444 
	54.245,19.224 54.176,19.274 54.176,19.19 54.176,16.186 54.176,16.163 54.193,16.15 62.577,10.132 62.577,4.924 45.215,17.304 
	44.811,17.605 44.235,21.591 44.156,25.454 44.153,25.498 44.112,25.498 42.239,25.569 42.192,25.572 42.192,25.526 42.192,16.368 
	42.192,16.345 "/>
<path fill-rule="evenodd" clip-rule="evenodd" fill="#4D4D4D" d="M42.185,33.658v-0.092H14.721h-0.294
	c-1.705,0.036-3.682,0.079-5.369-0.327H9.02c-1.136-0.291-2.216-0.768-3.196-1.412c-0.966-0.635-1.817-1.431-2.516-2.352
	c-0.153-0.203-0.301-0.413-0.442-0.631c-0.106-0.17-0.207-0.341-0.304-0.511c0.039,1.124,0.235,2.236,0.583,3.306
	c0.758,2.303,2.242,4.297,4.229,5.686c1.051,0.733,2.21,1.296,3.436,1.667c0.228,0.072,0.494,0.136,0.767,0.197
	s0.647,0.125,0.989,0.177c0.392,0.059,0.767,0.104,1.1,0.135c0.333,0.031,0.626,0.052,0.864,0.057h25.111v2.541H14.585
	c-0.795-0.021-1.589-0.093-2.375-0.215c-0.726-0.102-1.442-0.257-2.145-0.463C3.938,39.635-0.201,33.926,0.007,27.548
	c0.04-2.789,0.92-5.501,2.526-7.782c1.624-2.314,3.898-4.094,6.535-5.113l0.059-0.023v0.892H9.099
	c-1.558,0.569-2.914,1.585-3.896,2.922c-0.956,1.309-1.482,2.882-1.506,4.502c-0.017,1.796,0.552,3.548,1.621,4.991
	c1.076,1.407,2.596,2.408,4.313,2.84c1.381,0.333,3.188,0.292,4.746,0.256h0.294h27.586c0.667,0.017,1.301,0.292,1.769,0.767
	c0.466,0.497,0.72,1.156,0.708,1.838v20.921l17.833-12.734v-5.188L47.349,47.508l-0.068,0.049v-3.111l0.018-0.013L64.99,31.81h0.018
	h0.069h0.051v11.333l-0.018,0.013L44.537,57.853c-0.221,0.2-0.482,0.351-0.768,0.439c-0.307,0.081-0.633,0.043-0.913-0.107
	c-0.215-0.118-0.393-0.296-0.511-0.512c-0.115-0.225-0.168-0.476-0.156-0.729V33.658H42.185z"/>
<path fill="#4D4D4D" d="M67.632,44.466l15.401-10.994l0.069-0.049v11.434l-0.019,0.013L64.763,57.985l-0.035,0.028
	c-0.269,0.228-0.615,0.342-0.967,0.316c-0.323-0.026-0.624-0.178-0.839-0.422l-0.022-0.028l-0.051-0.063
	c-0.187-0.25-0.273-0.56-0.243-0.869c0.032-0.332,0.192-0.639,0.447-0.854l0.077-0.061l1.896-1.358l0.071-0.051l15.461-11.075V38.35
	l-12.876,9.191l-0.068,0.049V44.48L67.632,44.466z"/>
<polygon fill="#4D4D4D" points="74.432,33.39 74.411,7.875 70.154,10.932 70.162,28.08 70.162,28.103 70.145,28.116 67.703,29.862 
	67.634,29.913 67.634,29.826 67.624,9.656 67.624,9.633 67.642,9.621 76.868,2.994 76.938,2.945 76.938,3.03 76.963,34.663 
	76.963,34.687 76.945,34.699 67.718,41.29 67.649,41.339 67.649,41.254 67.646,38.245 67.646,38.222 67.664,38.209 70.106,36.496 
	"/>
<rect x="80.581" y="24.707" transform="matrix(-0.7071 0.7072 -0.7072 -0.7071 161.1425 -12.2753)" fill="#4D4D4D" width="5.065" height="5.065"/>
<polygon fill="#FEA000" points="47.271,58.99 65.019,46.353 65.088,46.304 65.088,46.388 65.088,49.392 65.088,49.415 
	65.069,49.428 62.617,51.18 47.321,62.065 47.252,62.114 47.252,62.029 47.252,59.025 47.252,59.003 "/>
<rect fill-rule="evenodd" clip-rule="evenodd" fill="none" width="87" height="63"/>
</svg>
