<svg xmlns="http://www.w3.org/2000/svg" viewBox="-11915 -371 32 31.792">
  <defs>
    <style>
      .cls-1 {
        fill: #fff;
      }

      .cls-2 {
        fill: #b3b3b3;
      }
    </style>
  </defs>
  <g id="Group_6301" data-name="Group 6301" transform="translate(-12820 -3961)">
    <g id="Layer_2_1_" transform="translate(905 3590)">
      <g id="Layer_1-2_1_" transform="translate(0 0)">
        <path id="Path_4306" data-name="Path 4306" class="cls-1" d="M20.355,31.723l.081.046.035.023h6.362a5.136,5.136,0,0,0,3.588-1.465A5.258,5.258,0,0,0,32,26.6V5.156h-.006a5.272,5.272,0,0,0-.421-2.019A5.181,5.181,0,0,0,28.753.381,5.054,5.054,0,0,0,26.826,0H5.093a4.992,4.992,0,0,0-2,.45A5.126,5.126,0,0,0,.381,3.265,5.2,5.2,0,0,0,0,5.18V26.532a5.443,5.443,0,0,0,.427,2.117,4.96,4.96,0,0,0,1.252,1.765l-.006.006a5.158,5.158,0,0,0,1.621,1.015,5.061,5.061,0,0,0,1.875.358h15.3v-8.75l2.071-1.257v7.931h4.291a3.053,3.053,0,0,0,2.14-.871,3.09,3.09,0,0,0,.946-2.249V5.156a3.116,3.116,0,0,0-3.092-3.08h-11.3l7.85,4.782.9.548.069.046.271.162v8.415L14.9,21.941l3.5,2.128v2.422L9.477,21.064V25.09l8.433,5.139.012.006,2.434,1.488ZM9.477,2.076v4.7h0v.49l5.422,3.3V8.15L11.547,6.1V2.076L22.281,8.617,7.412,17.673V26.25L13.1,29.71H5.168a3.106,3.106,0,0,1-3.092-3.178V5.18a3.1,3.1,0,0,1,3.017-3.1ZM22.552,14.858,12.908,20.73l-3.27-1.99,12.9-7.862v3.98Z" transform="translate(0 0)"/>
        <path id="Path_4307" data-name="Path 4307" class="cls-2" d="M54.278,65.647l.081.046.035.023v-8.75l2.071-1.257V63.64h4.291a3.053,3.053,0,0,0,2.14-.871,3.09,3.09,0,0,0,.946-2.249V39.08A3.119,3.119,0,0,0,60.75,36h-11.3l7.85,4.782.9.548.069.046.271.161v8.415l-9.713,5.912,3.5,2.128v2.423L43.4,54.988v4.026l8.433,5.133.012.006,2.434,1.494ZM43.4,36v4.7h0v.49l5.422,3.3V42.074l-3.351-2.048V36L56.2,42.541,41.335,51.6v8.577l5.687,3.461H39.092A3.106,3.106,0,0,1,36,60.456V39.1A3.1,3.1,0,0,1,39.017,36ZM56.476,48.782l-9.644,5.872-3.27-1.99,12.9-7.862v3.98Z" transform="translate(-33.924 -33.924)"/>
      </g>
    </g>
  </g>
</svg>
